# xmcd
# Track frame offsets:
# 150
# 17875
# 39246
# 59286
# 81806
# 109817
# 130734
# 148598
# 170585
# 191907
#
# Disc length: 2932 seconds
# Revision: 0
# Processed by: cddbd v1.4PL0 Copyright (c) Steve Scherf et al.
# Submitted via: VisiTrax 2.9.5.181 - For more info visit www.synapsa.com
#
DISCID=870b720a
DTITLE=Big G - Keeping It Real
DYEAR=2003
DGENRE=Blues
TTITLE0=Hot Loving
TTITLE1=Forever
TTITLE2=Steppin' Out Again
TTITLE3=Let's Straighten It Out
TTITLE4=Second Hand Loving
TTITLE5=Don't Want To Go
TTITLE6=Cute Little Thing
TTITLE7=Time To Settle Down
TTITLE8=Forever (Edit)
TTITLE9=2nd Hand Lovin' (Edit)
EXTD=
EXTT0=
EXTT1=
EXTT2=
EXTT3=
EXTT4=
EXTT5=
EXTT6=
EXTT7=
EXTT8=
EXTT9=
PLAYORDER=
